<?xml version="1.0" encoding="utf-8"?>
<!-- Generator: Adobe Illustrator 21.1.0, SVG Export Plug-In . SVG Version: 6.00 Build 0)  -->
<svg version="1.1" id="Layer_1" xmlns="http://www.w3.org/2000/svg" xmlns:xlink="http://www.w3.org/1999/xlink" x="0px" y="0px"
	 viewBox="0 0 612 792" style="enable-background:new 0 0 612 792;" xml:space="preserve">
<style type="text/css">
	.st0{fill:#010101;}
</style>
<path class="st0" d="M391,422.3c-4.8,10.8-11.8,20.3-20.8,28.5c-9.1,8.2-20.4,14.7-34,19.5c-13.6,4.8-29.2,7.2-46.8,7.2
	c-11.9,0-22.7-2.3-32.3-6.8c-9.6-4.5-17.4-10.6-23.4-18.3c-6-7.6-10.6-16.3-14-25.9c-3.4-9.6-5.1-19.3-5.1-28.9
	c0-10.8,1.7-21.1,5.1-31c3.4-9.9,8.6-18.7,15.7-26.3c7.1-7.7,15.9-14,26.4-19.1c10.5-5.1,23.1-7.7,37.8-7.7
	c32.9,0,57.5,7.8,73.9,23.4c16.4,15.6,24.7,33.3,24.7,53.1C398.2,400.8,395.8,411.5,391,422.3z"/>
</svg>
